<svg xmlns="http://www.w3.org/2000/svg" xmlns:xlink="http://www.w3.org/1999/xlink" viewBox="0 0 177.73 177.32"><defs><style>.cls-1,.cls-10,.cls-11,.cls-12,.cls-13,.cls-14,.cls-15,.cls-16,.cls-17,.cls-18,.cls-19,.cls-2,.cls-20,.cls-21,.cls-22,.cls-23,.cls-24,.cls-25,.cls-26,.cls-27,.cls-28,.cls-29,.cls-3,.cls-30,.cls-31,.cls-32,.cls-4,.cls-5,.cls-6,.cls-7,.cls-8,.cls-9{fill-rule:evenodd;}.cls-1{fill:url(#radial-gradient);}.cls-2{fill:url(#linear-gradient);}.cls-3{fill:url(#linear-gradient-2);}.cls-4{fill:url(#radial-gradient-2);}.cls-5{fill:url(#radial-gradient-3);}.cls-6{fill:url(#linear-gradient-3);}.cls-7{fill:url(#linear-gradient-4);}.cls-8{fill:url(#linear-gradient-5);}.cls-9{fill:url(#linear-gradient-6);}.cls-10{fill:url(#radial-gradient-4);}.cls-11{fill:url(#radial-gradient-5);}.cls-12{fill:url(#linear-gradient-7);}.cls-13{fill:url(#linear-gradient-8);}.cls-14{fill:url(#linear-gradient-9);}.cls-15{fill:url(#linear-gradient-10);}.cls-16{fill:url(#linear-gradient-11);}.cls-17{fill:url(#linear-gradient-12);}.cls-18{fill:url(#linear-gradient-13);}.cls-19{fill:url(#linear-gradient-14);}.cls-20{fill:url(#linear-gradient-15);}.cls-21{fill:url(#linear-gradient-16);}.cls-22{fill:#00a576;}.cls-23{fill:url(#radial-gradient-6);}.cls-24{fill:url(#linear-gradient-17);}.cls-25{fill:url(#linear-gradient-18);}.cls-26{fill:url(#linear-gradient-19);}.cls-27{fill:url(#linear-gradient-20);}.cls-28{fill:url(#radial-gradient-7);}.cls-29{fill:url(#linear-gradient-21);}.cls-30{fill:url(#linear-gradient-22);}.cls-31{fill:url(#linear-gradient-23);}.cls-32{fill:url(#linear-gradient-24);}</style><radialGradient id="radial-gradient" cx="124.17" cy="88.66" r="144.09" gradientTransform="scale(0.72 1)" gradientUnits="userSpaceOnUse"><stop offset="0" stop-color="#613131"/><stop offset="0.38" stop-color="#582c2c"/><stop offset="0.81" stop-color="#472323"/><stop offset="1" stop-color="#3b1919"/></radialGradient><linearGradient id="linear-gradient" x1="4.3" y1="18.18" x2="15.54" y2="18.18" gradientUnits="userSpaceOnUse"><stop offset="0" stop-color="#ffdd6e"/><stop offset="1" stop-color="#d69705"/></linearGradient><linearGradient id="linear-gradient-2" x1="7.34" y1="21.67" x2="18.2" y2="21.67" gradientUnits="userSpaceOnUse"><stop offset="0" stop-color="#a87219"/><stop offset="1" stop-color="#6b4200"/></linearGradient><radialGradient id="radial-gradient-2" cx="124.17" cy="6.36" r="76.03" gradientTransform="scale(0.72 1)" gradientUnits="userSpaceOnUse"><stop offset="0" stop-color="#fff5b0"/><stop offset="1" stop-color="#f5d36c"/></radialGradient><radialGradient id="radial-gradient-3" cx="124.17" cy="10.49" r="72.58" gradientTransform="scale(0.72 1)" gradientUnits="userSpaceOnUse"><stop offset="0" stop-color="#bf8800"/><stop offset="1" stop-color="#a36808"/></radialGradient><linearGradient id="linear-gradient-3" x1="162.19" y1="18.18" x2="173.43" y2="18.18" xlink:href="#linear-gradient"/><linearGradient id="linear-gradient-4" x1="159.53" y1="21.67" x2="170.4" y2="21.67" gradientUnits="userSpaceOnUse"><stop offset="0" stop-color="#6b4200"/><stop offset="1" stop-color="#a87219"/></linearGradient><linearGradient id="linear-gradient-5" x1="158.35" y1="163.94" x2="168.91" y2="163.94" gradientUnits="userSpaceOnUse"><stop offset="0" stop-color="#d69705"/><stop offset="1" stop-color="#ffdd6e"/></linearGradient><linearGradient id="linear-gradient-6" x1="160.6" y1="167.45" x2="171.86" y2="167.45" xlink:href="#linear-gradient-4"/><radialGradient id="radial-gradient-4" cx="124.17" cy="170.29" r="107.29" gradientTransform="scale(0.72 1)" xlink:href="#linear-gradient"/><radialGradient id="radial-gradient-5" cx="124.17" cy="174.41" r="117.21" gradientTransform="scale(0.72 1)" xlink:href="#linear-gradient-2"/><linearGradient id="linear-gradient-7" x1="5.88" y1="167.45" x2="17.13" y2="167.45" xlink:href="#linear-gradient-4"/><linearGradient id="linear-gradient-8" x1="8.83" y1="163.94" x2="19.63" y2="163.94" xlink:href="#linear-gradient-5"/><linearGradient id="linear-gradient-9" x1="4.41" y1="163.08" x2="4.41" y2="93.64" gradientUnits="userSpaceOnUse"><stop offset="0" stop-color="#ffd97a"/><stop offset="1" stop-color="#eb9e21"/></linearGradient><linearGradient id="linear-gradient-10" x1="12.19" y1="159.36" x2="12.19" y2="93.38" gradientUnits="userSpaceOnUse"><stop offset="0" stop-color="#e8b048"/><stop offset="1" stop-color="#8f6b09"/></linearGradient><linearGradient id="linear-gradient-11" x1="3.97" y1="93.73" x2="3.97" y2="24.17" xlink:href="#linear-gradient-9"/><linearGradient id="linear-gradient-12" x1="11.75" y1="93.47" x2="11.75" y2="27.75" xlink:href="#linear-gradient-10"/><linearGradient id="linear-gradient-13" x1="173.32" y1="163.08" x2="173.32" y2="93.64" xlink:href="#linear-gradient-10"/><linearGradient id="linear-gradient-14" x1="165.54" y1="159.36" x2="165.54" y2="93.38" xlink:href="#linear-gradient-9"/><linearGradient id="linear-gradient-15" x1="173.76" y1="93.73" x2="173.76" y2="24.17" xlink:href="#linear-gradient-10"/><linearGradient id="linear-gradient-16" x1="165.98" y1="93.47" x2="165.98" y2="27.75" xlink:href="#linear-gradient-9"/><radialGradient id="radial-gradient-6" cx="9.92" cy="90.72" r="9.73" gradientTransform="scale(0.72 1)" gradientUnits="userSpaceOnUse"><stop offset="0" stop-color="#4dcca9"/><stop offset="1" stop-color="#1d7956"/></radialGradient><linearGradient id="linear-gradient-17" x1="4.23" y1="87.13" x2="8.04" y2="87.13" gradientUnits="userSpaceOnUse"><stop offset="0" stop-color="#4da885"/><stop offset="1" stop-color="#4dfcd9"/></linearGradient><linearGradient id="linear-gradient-18" x1="7.93" y1="87.07" x2="11.93" y2="87.07" gradientUnits="userSpaceOnUse"><stop offset="0" stop-color="#4da885"/><stop offset="1" stop-color="#005e3b"/></linearGradient><linearGradient id="linear-gradient-19" x1="8.12" y1="99.98" x2="11.93" y2="99.98" xlink:href="#linear-gradient-17"/><linearGradient id="linear-gradient-20" x1="4.23" y1="100.05" x2="8.23" y2="100.05" xlink:href="#linear-gradient-18"/><radialGradient id="radial-gradient-7" cx="235.72" cy="90.23" r="9.95" xlink:href="#radial-gradient-6"/><linearGradient id="linear-gradient-21" x1="169.7" y1="87.13" x2="173.5" y2="87.13" xlink:href="#linear-gradient-18"/><linearGradient id="linear-gradient-22" x1="165.8" y1="87.07" x2="169.8" y2="87.07" xlink:href="#linear-gradient-17"/><linearGradient id="linear-gradient-23" x1="165.8" y1="99.98" x2="169.61" y2="99.98" xlink:href="#linear-gradient-18"/><linearGradient id="linear-gradient-24" x1="169.5" y1="100.05" x2="173.5" y2="100.05" xlink:href="#linear-gradient-17"/></defs><g id="Layer_2" data-name="Layer 2"><g id="Layer_1-2" data-name="Layer 1"><path class="cls-1" d="M7.34,27.75,8.83,159.36a11,11,0,0,1,5.4,4.47,18.13,18.13,0,0,1,2.9,7.67C41,172.79,65,173.14,88.87,173.14s47.86-.35,71.73-1.64a18.13,18.13,0,0,1,2.9-7.67,11.06,11.06,0,0,1,5.41-4.47L170.4,27.75a12.09,12.09,0,0,1-6.16-6.2,20.08,20.08,0,0,1-2.05-8.82c-12.64-.39-25.49-2.76-38-4.78-11.67-1.88-23.58-3.77-35.32-3.77S65.21,6.07,53.55,8c-12.52,2-25.36,4.39-38,4.78a20.08,20.08,0,0,1-2,8.82,12.11,12.11,0,0,1-6.15,6.2Z"/><path class="cls-2" d="M13.49,21.55a20.08,20.08,0,0,0,2-8.82L12.05,8.6a15.17,15.17,0,0,1-1,10.56c-1.58,3.19-3.95,4.95-6.73,5l3,3.58a12.11,12.11,0,0,0,6.15-6.2Z"/><path class="cls-3" d="M15.54,12.73a20.08,20.08,0,0,1-2,8.82,12.11,12.11,0,0,1-6.15,6.2l3,2.87A17,17,0,0,0,16,23.93a24.76,24.76,0,0,0,2.25-7.12l-2.66-4.08Z"/><path class="cls-4" d="M15.54,12.73C28.19,12.34,41,10,53.55,8,65.21,6.07,77.12,4.18,88.87,4.18S112.52,6.07,124.19,8c12.51,2,25.36,4.39,38,4.78l3.49-4.13C142.24,8.6,113.21,0,88.87,0S35.49,8.6,12.05,8.6l3.49,4.13Z"/><path class="cls-5" d="M53.55,8c-12.52,2-25.36,4.39-38,4.78l2.66,4.08c23.57-1.17,47.09-8.45,70.67-8.45s47.09,7.28,70.66,8.45l2.66-4.08c-12.64-.39-25.49-2.76-38-4.78-11.67-1.88-23.58-3.77-35.32-3.77S65.21,6.07,53.55,8Z"/><path class="cls-6" d="M164.24,21.55a12.09,12.09,0,0,0,6.16,6.2l3-3.58c-2.78-.06-5.15-1.82-6.73-5a15.22,15.22,0,0,1-1-10.56l-3.49,4.13a20.08,20.08,0,0,0,2.05,8.82Z"/><path class="cls-7" d="M170.4,27.75a12.09,12.09,0,0,1-6.16-6.2,20.08,20.08,0,0,1-2.05-8.82l-2.66,4.08a24.47,24.47,0,0,0,2.26,7.12,16.93,16.93,0,0,0,5.58,6.69l3-2.87Z"/><path class="cls-8" d="M166,156.37a15.46,15.46,0,0,0-4.62,4.58,21.9,21.9,0,0,0-3,6.48l2.25,4.07a18.13,18.13,0,0,1,2.9-7.67,11.06,11.06,0,0,1,5.41-4.47l-3-3Z"/><path class="cls-9" d="M168.91,159.36a11.06,11.06,0,0,0-5.41,4.47,18.13,18.13,0,0,0-2.9,7.67l2.79,4a14.16,14.16,0,0,1,2.28-8.82c1.67-2.46,3.77-3.69,6.19-3.63l-3-3.72Z"/><path class="cls-10" d="M160.6,171.5l-2.25-4.07C135.22,168.63,112,169,88.87,169s-46.19-.33-69.24-1.51l-2.5,4.05C41,172.79,65,173.14,88.87,173.14s47.86-.35,71.73-1.64Z"/><path class="cls-11" d="M160.6,171.5c-23.87,1.29-47.85,1.64-71.73,1.64S41,172.79,17.13,171.5l-2.78,4c19.52,1.11,45.71,1.79,74.52,1.79s55-.68,74.52-1.79l-2.79-4Z"/><path class="cls-12" d="M17.13,171.5a18.13,18.13,0,0,0-2.9-7.67,11,11,0,0,0-5.4-4.47l-2.95,3.72c2.42-.06,4.52,1.17,6.18,3.63a14.16,14.16,0,0,1,2.29,8.82l2.78-4Z"/><path class="cls-13" d="M14.23,163.83a18.13,18.13,0,0,1,2.9,7.67l2.5-4.05-.25,0a21.9,21.9,0,0,0-3-6.48,15.46,15.46,0,0,0-4.62-4.58l-2.95,3a11,11,0,0,1,5.4,4.47Z"/><path class="cls-14" d="M8.83,159.36l-.57-49.75,0-3.11a21.46,21.46,0,0,0-4-12.86L0,93.73a25.23,25.23,0,0,1,5.27,16l.61,53.4,3-3.72Z"/><path class="cls-15" d="M8.26,109.61l.57,49.75,2.95-3-.53-46.82a25.69,25.69,0,0,1,4.91-16.17l-4.23.09a21.78,21.78,0,0,0-3.7,13l0,3.11Z"/><path class="cls-16" d="M4.23,93.64,0,93.73A25.68,25.68,0,0,0,4.91,77.57L4.3,24.17l3,3.58L7.9,77.5l0,3.12a21.77,21.77,0,0,1-3.7,13Z"/><path class="cls-17" d="M7.9,77.5l0,3.12a21.45,21.45,0,0,0,4,12.85l4.23-.09a25.23,25.23,0,0,1-5.27-15.95l-.53-46.81-3-2.87L7.9,77.5Z"/><path class="cls-18" d="M168.91,159.36l.56-49.75,0-3.11a21.46,21.46,0,0,1,4-12.86l4.23.09a25.23,25.23,0,0,0-5.27,16l-.6,53.4-3-3.72Z"/><path class="cls-19" d="M169.47,109.61l-.56,49.75-3-3,.53-46.82a25.69,25.69,0,0,0-4.91-16.17l4.23.09a21.78,21.78,0,0,1,3.7,13l0,3.11Z"/><path class="cls-20" d="M173.5,93.64l4.23.09a25.61,25.61,0,0,1-4.9-16.16l.6-53.4-3,3.58-.57,49.75,0,3.12a21.77,21.77,0,0,0,3.7,13Z"/><path class="cls-21" d="M169.83,77.5l0,3.12a21.45,21.45,0,0,1-4,12.85l-4.23-.09a25.17,25.17,0,0,0,5.27-15.95l.53-46.81,3-2.87-.57,49.75Z"/><path class="cls-22" d="M11.93,93.47a21.45,21.45,0,0,1-4-12.85,21.77,21.77,0,0,1-3.7,13,21.46,21.46,0,0,1,4,12.86,21.78,21.78,0,0,1,3.7-13Z"/><path class="cls-23" d="M9.9,93.52A21.68,21.68,0,0,1,8,89.71,23.22,23.22,0,0,1,6.26,93.6a21,21,0,0,1,1.86,3.81A22.51,22.51,0,0,1,9.9,93.52Z"/><path class="cls-24" d="M6.26,93.6A23.22,23.22,0,0,0,8,89.71l-.11-9.09a21.77,21.77,0,0,1-3.7,13l2,0Z"/><path class="cls-25" d="M8,89.71A21.68,21.68,0,0,0,9.9,93.52l2,0a21.45,21.45,0,0,1-4-12.85L8,89.71Z"/><path class="cls-26" d="M9.9,93.52A22.76,22.76,0,0,0,8.12,97.4l.11,9.1a21.78,21.78,0,0,1,3.7-13l-2,0Z"/><path class="cls-27" d="M8.12,97.41A21,21,0,0,0,6.26,93.6l-2,0a21.46,21.46,0,0,1,4,12.86l-.11-9.09Z"/><path class="cls-22" d="M165.8,93.47a21.45,21.45,0,0,0,4-12.85,21.77,21.77,0,0,0,3.7,13,21.46,21.46,0,0,0-4,12.86,21.78,21.78,0,0,0-3.7-13Z"/><path class="cls-28" d="M167.83,93.52a22.44,22.44,0,0,0,1.87-3.81,22.41,22.41,0,0,0,1.77,3.89,21,21,0,0,0-1.86,3.81,22.51,22.51,0,0,0-1.78-3.89Z"/><path class="cls-29" d="M171.47,93.6a22.41,22.41,0,0,1-1.77-3.89l.1-9.09a21.77,21.77,0,0,0,3.7,13l-2,0Z"/><path class="cls-30" d="M169.7,89.71a22.44,22.44,0,0,1-1.87,3.81l-2,0a21.45,21.45,0,0,0,4-12.85l-.1,9.09Z"/><path class="cls-31" d="M167.83,93.52a22.76,22.76,0,0,1,1.78,3.88l-.11,9.1a21.78,21.78,0,0,0-3.7-13l2,0Z"/><path class="cls-32" d="M169.61,97.41a21,21,0,0,1,1.86-3.81l2,0a21.46,21.46,0,0,0-4,12.86l.11-9.09Z"/></g></g></svg>